<?xml version="1.0" encoding="UTF-8"?>
<!-- Generator: visioncortex VTracer 0.6.4 -->
<svg version="1.1" xmlns="http://www.w3.org/2000/svg" width="512" height="512">
<path d="M0,0 L19,0 L30,4 L39,10 L51,21 L177,147 L181,145 L313,13 L324,5 L333,1 L337,0 L356,0 L368,4 L379,12 L423,56 L430,66 L434,78 L434,97 L430,108 L424,117 L413,129 L287,255 L289,259 L434,404 L433,408 L329,512 L326,512 L319,504 L307,492 L302,487 L286,471 L281,466 L265,450 L260,445 L244,429 L239,424 L231,417 L224,409 L219,404 L179,364 L172,370 L30,512 L26,511 L-78,407 L-77,403 L70,256 L64,249 L59,244 L58,255 L54,264 L47,272 L37,277 L32,278 L24,278 L14,275 L6,269 L0,261 L-2,255 L-3,219 L-5,201 L-10,185 L-18,170 L-26,160 L-45,141 L-52,133 L-70,115 L-77,101 L-78,97 L-78,78 L-74,66 L-66,55 L-22,11 L-12,4 Z " fill="#FABE2B" transform="translate(78,0)"/>
<path d="M0,0 L7,6 L297,296 L291,303 L234,360 L231,360 L224,352 L212,340 L207,335 L191,319 L186,314 L170,298 L165,293 L149,277 L144,272 L136,265 L129,257 L124,252 L84,212 L77,218 L-65,360 L-69,359 L-173,255 L-172,251 L-25,104 L-31,97 L-37,91 L-37,61 L-33,45 L-25,29 L-17,18 L-8,8 Z " fill="#FDD741" transform="translate(173,152)"/>
<path d="M0,0 L19,0 L30,4 L39,10 L51,21 L138,108 L136,112 L81,167 L73,178 L65,192 L61,203 L59,213 L58,255 L54,264 L47,272 L37,277 L32,278 L24,278 L14,275 L6,269 L0,261 L-2,255 L-3,219 L-5,201 L-10,185 L-18,170 L-26,160 L-45,141 L-52,133 L-70,115 L-77,101 L-78,97 L-78,78 L-74,66 L-66,55 L-22,11 L-12,4 Z " fill="#9B776E" transform="translate(78,0)"/>
<path d="M0,0 L7,6 L297,296 L291,303 L255,339 L248,333 L-34,51 L-33,45 L-25,29 L-17,18 L-8,8 Z " fill="#FDD742" transform="translate(173,152)"/>
<path d="M0,0 L19,0 L31,4 L42,12 L86,56 L93,66 L97,78 L97,97 L93,108 L87,117 L76,129 L10,195 L6,193 L-45,142 L-52,134 L-98,88 L-92,81 L-24,13 L-13,5 L-4,1 Z " fill="#6F4B54" transform="translate(415,0)"/>
<path d="M0,0 L4,2 L31,29 L36,34 L52,50 L54,51 L53,55 L-94,202 L-98,201 L-149,150 L-149,148 L-141,141 Z " fill="#FF6419" transform="translate(202,310)"/>
<path d="M0,0 L19,0 L30,4 L39,10 L51,21 L138,108 L136,112 L86,162 L82,160 L-42,36 L-44,35 L-42,31 L-22,11 L-12,4 Z " fill="#704B54" transform="translate(78,0)"/>
<path d="M0,0 L4,2 L21,19 L26,24 L43,41 L37,48 L-106,191 L-110,189 L-149,150 L-143,143 Z " fill="#FABD2B" transform="translate(149,257)"/>
<path d="M0,0 L7,6 L297,296 L291,303 L277,317 L273,315 L-20,22 L-18,18 Z " fill="#FE9100" transform="translate(194,131)"/>
<path d="M0,0 L4,2 L296,294 L294,298 L276,316 L269,310 L-13,28 L-12,22 L-4,6 Z " fill="#F9BE2C" transform="translate(152,175)"/>
<path d="M0,0 L4,1 L24,21 L31,31 L35,43 L35,62 L31,73 L25,82 L14,94 L-52,160 L-56,158 L-106,108 L-104,104 Z " fill="#59334A" transform="translate(477,35)"/>
<path d="M0,0 L5,5 L20,20 L22,21 L21,25 L-126,172 L-130,171 L-149,152 L-147,148 L-1,2 Z " fill="#FE9300" transform="translate(234,340)"/>
<path d="M0,0 L7,6 L54,53 L48,60 L-5,113 L-7,115 L-60,62 L-58,58 Z " fill="#FF6419" transform="translate(370,142)"/>
<path d="M0,0 L4,2 L22,20 L16,27 L-127,170 L-131,168 L-149,150 L-143,143 Z " fill="#FF9100" transform="translate(170,278)"/>
<path d="M0,0 L7,6 L297,296 L291,303 L287,307 L285,307 L278,299 L-10,11 L-4,4 Z " fill="#FABD2B" transform="translate(173,152)"/>
<path d="M0,0 L7,6 L42,41 L41,45 L-18,104 L-25,98 L-39,84 L-39,82 L-43,80 L-60,63 L-58,59 L-1,2 Z " fill="#F9BD2B" transform="translate(317,88)"/>
<path d="M0,0 L5,5 L12,11 L7,16 L-137,160 L-140,161 L-150,151 L-144,144 Z " fill="#FABC2A" transform="translate(192,298)"/>
<path d="M0,0 L4,2 L11,9 L9,13 L-138,160 L-145,154 L-149,150 L-149,148 L-141,141 Z " fill="#FE9000" transform="translate(202,310)"/>
<path d="M0,0 L4,2 L23,21 L17,28 L-36,81 L-38,83 L-60,61 L-54,54 Z " fill="#FE9300" transform="translate(401,174)"/>
<path d="M0,0 L4,2 L21,19 L20,23 L-39,82 L-46,76 L-60,62 L-58,58 Z " fill="#FE9000" transform="translate(338,110)"/>
<path d="M0,0 L7,6 L11,11 L-49,71 L-53,69 L-60,62 L-58,58 Z " fill="#FF9000" transform="translate(370,142)"/>
</svg>
